<svg  xmlns="http://www.w3.org/2000/svg"  width="24"  height="24"  viewBox="0 0 24 24"  fill="none"  stroke="currentColor"  stroke-width="2"  stroke-linecap="round"  stroke-linejoin="round"  class="icon icon-tabler icons-tabler-outline icon-tabler-brand-qiita"><path stroke="none" d="M0 0h24v24H0z" fill="none"/><path d="M12 12m-9 0a9 9 0 1 0 18 0a9 9 0 1 0 -18 0" /><path d="M14.4 7.6m-2.2 0a2.2 2.2 0 1 0 4.4 0a2.2 2.2 0 1 0 -4.4 0" /><path d="M9.6 17.4v-1.6a4.9 4.9 0 0 1 4.9 -4.9h.2a4.9 4.9 0 0 1 4.9 4.9v1.6" /></svg>
